<?xml version="1.0" encoding="UTF-8"?>
<svg version="1.1" xmlns="http://www.w3.org/2000/svg" width="500" height="500">
<path d="M0 0 C1.81904079 1.70136699 3.6324414 3.40880582 5.4375 5.125 C6.08976562 5.73601562 6.74203125 6.34703125 7.4140625 6.9765625 C41.17085963 39.50023462 66.48277152 92.27788325 67.61450195 139.25805664 C67.64118725 141.18367995 67.66126917 143.10940273 67.67578125 145.03515625 C67.683853 146.07909042 67.69192474 147.1230246 67.70024109 148.19859314 C67.71402574 150.40817639 67.72477282 152.61778043 67.73266602 154.82739258 C67.7440838 157.04067428 67.76436939 159.25393075 67.79418945 161.46704102 C68.0629805 181.47921013 65.82846628 200.48323894 60.25 219.75 C59.95520752 220.78012207 59.66041504 221.81024414 59.35668945 222.87158203 C44.08937893 274.3003934 8.23133953 318.64113538 -37.5625 346.125 C-38.17383789 346.4957666 -38.78517578 346.8665332 -39.41503906 347.24853516 C-72.59700764 367.20703855 -110.19718164 376.61584379 -148.75 376.4375 C-149.55410309 376.43600952 -150.35820618 376.43451904 -151.18667603 376.4329834 C-164.18269815 376.3898623 -176.78088555 375.61792522 -189.5625 373.125 C-190.32401367 372.98578125 -191.08552734 372.8465625 -191.87011719 372.703125 C-232.39778284 365.19864512 -270.0784971 344.69888577 -299.5625 316.125 C-300.1203418 315.59293945 -300.67818359 315.06087891 -301.25292969 314.51269531 C-309.84835134 306.29655316 -317.60636107 297.77431786 -324.5625 288.125 C-325.27720459 287.1362085 -325.27720459 287.1362085 -326.00634766 286.12744141 C-360.79652916 237.37533533 -373.27057675 178.03276887 -363.5625 119.125 C-355.72086702 75.50211731 -334.18954365 36.78340823 -303.5625 5.125 C-302.50482422 4.00738281 -302.50482422 4.00738281 -301.42578125 2.8671875 C-296.20077924 -2.53798699 -290.48618718 -7.25602367 -284.5625 -11.875 C-284.02270508 -12.29652344 -283.48291016 -12.71804687 -282.92675781 -13.15234375 C-204.97662884 -73.50660788 -91.54361555 -75.06505762 0 0 Z " fill="#020202" transform="translate(397.5625,73.875)"/>
<path d="M0 0 C0.51546526 9.26636742 0.90332303 18.52764173 1.13986778 27.80533791 C1.25356787 32.11683098 1.40683902 36.41836748 1.65966797 40.72412109 C3.40680095 71.26907984 3.40680095 71.26907984 -4.81933594 81.13183594 C-9.1894355 85.99755825 -14.16778075 90.15368227 -19.43466187 94.02182007 C-23.36037355 97.04900934 -26.70445562 100.5251565 -29.8125 104.375 C-32.61312176 107.70390442 -35.71614446 110.46509885 -39.0703125 113.2265625 C-41.1508815 114.94725603 -41.1508815 114.94725603 -42.40374756 117.57536316 C-46.56329644 121.45996055 -50.98295836 120.65666871 -56.46972656 120.56762695 C-57.64073914 120.56835709 -58.81175171 120.56908722 -60.01824951 120.56983948 C-63.89284416 120.56635319 -67.76624008 120.52743938 -71.640625 120.48828125 C-74.32533092 120.47618107 -77.01003552 120.47159309 -79.69476318 120.46684265 C-86.04137822 120.45130622 -92.38756226 120.4102811 -98.73398757 120.3600952 C-105.96000037 120.30419499 -113.18603382 120.27671364 -120.41220903 120.25161803 C-135.27503909 120.19936461 -150.13749109 120.11142674 -165 120 C-164.28528854 116.85754495 -163.43046261 114.92729545 -161.4375 112.375 C-160.8909375 111.66988281 -160.344375 110.96476562 -159.78125 110.23828125 C-157.33162086 107.16012884 -154.86629635 104.09479892 -152.3984375 101.03125 C-149.40317734 97.24570947 -146.48422296 93.40489857 -143.5625 89.5625 C-129.06024244 70.53012122 -129.06024244 70.53012122 -126 69 C-123.8452107 68.90817917 -121.68750282 68.88249538 -119.53076172 68.88647461 C-118.53545944 68.88625557 -118.53545944 68.88625557 -117.52005005 68.8860321 C-115.32322947 68.88672969 -113.1264933 68.89451486 -110.9296875 68.90234375 C-109.40796963 68.90420848 -107.88625116 68.90563212 -106.36453247 68.90663147 C-102.35648953 68.91045233 -98.34848274 68.92027896 -94.3404541 68.93133545 C-90.25171396 68.94155882 -86.16296799 68.94613108 -82.07421875 68.95117188 C-74.04946256 68.9619016 -66.02473578 68.97897287 -58 69 C-57.71125 68.05898438 -57.4225 67.11796875 -57.125 66.1484375 C-55.92173376 62.78096322 -54.75051949 61.23479709 -52 59 C-51.34 59 -50.68 59 -50 59 C-50.05760498 58.25427734 -50.11520996 57.50855469 -50.17456055 56.74023438 C-51.60423261 35.53699665 -51.60423261 35.53699665 -47.9375 29.73828125 C-45.04541543 27.71300043 -42.25893573 26.34838466 -39 25 C-37.20816906 23.90875412 -35.43671185 22.78333225 -33.6875 21.625 C-32.78257812 21.05910156 -31.87765625 20.49320312 -30.9453125 19.91015625 C-27.57570729 17.72482873 -24.31835631 15.41244465 -21.0625 13.0625 C-2.93815651 0 -2.93815651 0 0 0 Z " fill="#F0EFED" transform="translate(366,242)"/>
<path d="M0 0 C1.0209375 0.13535156 1.0209375 0.13535156 2.0625 0.2734375 C4 0.625 4 0.625 7 1.625 C7 2.285 7 2.945 7 3.625 C7.93005859 3.86283203 7.93005859 3.86283203 8.87890625 4.10546875 C15.83476072 5.93808834 22.61869995 8.11819434 29.421875 10.44140625 C32.92971648 11.60175119 36.44134259 12.63496326 40 13.625 C40 14.285 40 14.945 40 15.625 C40.66644531 15.79515625 41.33289063 15.9653125 42.01953125 16.140625 C48.84361117 17.93492853 55.39849095 20.14591268 62 22.625 C63.81220605 23.2716577 65.62470717 23.91748907 67.4375 24.5625 C71.12852441 25.89623151 74.7188144 27.36204471 78.3125 28.9375 C85.23745458 31.89092434 92.40894275 34.03930518 99.6105957 36.21411133 C100.53573975 36.49794678 101.46088379 36.78178223 102.4140625 37.07421875 C103.2488916 37.32518311 104.0837207 37.57614746 104.94384766 37.8347168 C107 38.625 107 38.625 109 40.625 C110.82868366 41.35088552 112.68619738 42.00486459 114.5546875 42.62109375 C115.71460205 43.00990723 116.8745166 43.3987207 118.06958008 43.79931641 C118.68991119 44.00502258 119.31024231 44.21072876 119.94937134 44.42266846 C135.52914353 49.59938289 150.77649147 55.48486917 166 61.625 C163.46477871 64.47895029 160.60639739 66.14574961 157.30078125 68.0234375 C156.17349609 68.66796875 155.04621094 69.3125 153.88476562 69.9765625 C152.69416176 70.65130879 151.5034055 71.32578623 150.3125 72 C143.12612615 76.08662277 135.97962377 80.19336986 129 84.625 C126.64077239 86.09024108 124.26464108 87.52251028 121.875 88.9375 C121.29363281 89.29650391 120.71226562 89.65550781 120.11328125 90.02539062 C116.24052973 92.29965746 113.47274989 93.02605204 109 92.625 C109 91.965 109 91.305 109 90.625 C108.33718018 90.52630615 107.67436035 90.4276123 106.99145508 90.32592773 C99.88709586 89.16543486 93.41136278 87.22700465 86.6875 84.6875 C85.73810547 84.34009766 84.78871094 83.99269531 83.81054688 83.63476562 C80.13295344 82.27202863 76.57335475 80.91833538 73.07763672 79.12988281 C69.99883621 77.62443094 67.02123382 76.5737308 63.74609375 75.57421875 C62.56080078 75.20490234 61.37550781 74.83558594 60.15429688 74.45507812 C57.70470469 73.70205058 55.25420167 72.95197869 52.80273438 72.20507812 C45.5501944 69.938904 38.77510857 67.24803181 31.92211914 63.9699707 C28.19338964 62.25373954 24.44201928 60.99324629 20.5 59.875 C16.25369419 58.6275444 12.08214522 57.35206144 8 55.625 C8 54.965 8 54.305 8 53.625 C6.80503906 53.39039063 5.61007813 53.15578125 4.37890625 52.9140625 C-2.25752396 51.43930023 -8.63371458 49.18735921 -15.0625 47 C-16.93325195 46.36964844 -16.93325195 46.36964844 -18.84179688 45.7265625 C-21.89594465 44.69681153 -24.94860185 43.66286449 -28 42.625 C-28 41.965 -28 41.305 -28 40.625 C-28.97453125 40.51929688 -29.9490625 40.41359375 -30.953125 40.3046875 C-35.4174225 39.66404058 -39.51569877 38.26488962 -43.75 36.75 C-44.50410156 36.49347656 -45.25820312 36.23695313 -46.03515625 35.97265625 C-46.76089844 35.71613281 -47.48664063 35.45960938 -48.234375 35.1953125 C-48.88631836 34.96602051 -49.53826172 34.73672852 -50.20996094 34.50048828 C-52.24233613 33.50647608 -53.4928969 32.29561506 -55 30.625 C-47.96086709 25.43485592 -40.60213488 21.02519561 -32.98730469 16.74902344 C-29.32633475 14.67837164 -25.69322603 12.56060876 -22.0625 10.4375 C-21.36503662 10.03362061 -20.66757324 9.62974121 -19.94897461 9.21362305 C-16.57715036 7.23881855 -13.34007381 5.19264534 -10.18359375 2.88671875 C-6.4794772 0.25520527 -4.40065021 -0.6167578 0 0 Z " fill="#F2F2F0" transform="translate(199,177.375)"/>
<path d="M0 0 C1.24580322 0.00553076 1.24580322 0.00553076 2.51677418 0.01117325 C3.94915928 0.00292526 3.94915928 0.00292526 5.41048145 -0.00548935 C6.97925289 0.01608231 6.97925289 0.01608231 8.57971668 0.03808975 C9.68230824 0.03750565 10.78489979 0.03692154 11.92090321 0.03631973 C15.57352403 0.03911144 19.22533372 0.07025614 22.87781239 0.10156631 C25.40700809 0.1090248 27.93620956 0.11471958 30.46541309 0.11871719 C36.44723322 0.13244093 42.42870396 0.16398141 48.410384 0.20411515 C55.22043988 0.24881556 62.03050967 0.27081548 68.84067571 0.29089689 C82.84931019 0.33271393 96.85768593 0.40307668 110.86609364 0.49219131 C110.04459262 4.46338886 108.48776549 6.28714956 105.67859364 9.24219131 C102.32066867 12.7888923 99.33111709 16.44679563 96.43469715 20.36865616 C93.80976491 23.92222201 91.11353333 27.42138076 88.42859364 30.92969131 C87.86237293 31.67106339 87.29615223 32.41243546 86.71277332 33.17627335 C83.20309379 37.7662415 79.6607707 42.32652823 76.03796864 46.82812881 C74.66990073 48.60130012 74.66990073 48.60130012 73.86609364 51.49219131 C73.11076344 51.49361633 72.35543324 51.49504135 71.57721424 51.49650955 C64.45549689 51.51434631 57.33450307 51.55597813 50.2131052 51.62428188 C46.55194135 51.65855958 42.89119508 51.6836629 39.22986317 51.68774796 C35.69573176 51.69202953 32.16254241 51.72047767 28.62870502 51.76562309 C26.62579289 51.78491613 24.62269078 51.77923926 22.61969471 51.77324295 C21.39873096 51.79288605 20.17776722 51.81252914 18.91980457 51.83276749 C17.84502857 51.83942932 16.77025257 51.84609116 15.6629076 51.85295486 C11.94074911 52.70368695 11.00016651 54.42728096 8.86609364 57.49219131 C8.11328114 57.8879335 7.36046864 58.28367569 6.58484364 58.69141006 C4.65711795 60.31557448 4.65711795 60.31557448 4.78015614 62.46338272 C4.90498896 64.14692971 5.03833597 65.82985835 5.17834949 67.51221085 C5.56558665 73.27192291 5.87868497 78.96526479 2.13123035 83.67041397 C-2.60220013 87.82146178 -8.00984911 90.91001448 -13.48644543 93.97510147 C-17.34873584 96.18833207 -20.9427428 98.73292442 -24.57140636 101.30469131 C-25.8511292 102.1845209 -27.13235046 103.0621755 -28.41515636 103.93750381 C-30.94411564 105.67085038 -33.4641164 107.4162481 -35.97765636 109.17187881 C-36.58424084 109.59493301 -37.19082531 110.01798721 -37.81579113 110.45386124 C-39.46338032 111.60426386 -41.10925127 112.75712621 -42.75500011 113.91016006 C-45.13390636 115.49219131 -45.13390636 115.49219131 -46.13390636 115.49219131 C-46.13390636 92.06219131 -46.13390636 68.63219131 -46.13390636 44.49219131 C-45.47390636 44.49219131 -44.81390636 44.49219131 -44.13390636 44.49219131 C-43.88769543 43.90695694 -43.64148449 43.32172256 -43.38781261 42.71875381 C-41.94016869 40.14817114 -40.34148155 38.73763439 -38.07140636 36.86719131 C-35.15514925 34.53733579 -35.15514925 34.53733579 -33.13390636 31.49219131 C-32.47390636 31.49219131 -31.81390636 31.49219131 -31.13390636 31.49219131 C-30.87996105 30.89922256 -30.62601574 30.30625381 -30.36437511 29.69531631 C-28.99764262 27.24821433 -27.61647655 25.99871178 -25.44640636 24.24219131 C-22.59652482 21.83824447 -20.09557833 19.40791218 -17.69640636 16.55469131 C-14.4887261 12.75709285 -10.94024095 9.55908981 -7.14953136 6.35156631 C-5.07687068 4.59722372 -5.07687068 4.59722372 -3.79859734 2.40604401 C-2.13390636 0.49219131 -2.13390636 0.49219131 0 0 Z " fill="#F0EFED" transform="translate(189.13390636444092,90.50780868530273)"/>
<path d="M0 0 C4.29777466 0.61115144 8.18062516 1.6278435 12.2734375 3.06640625 C13.42714844 3.46923828 14.58085937 3.87207031 15.76953125 4.28710938 C16.95933594 4.70798828 18.14914063 5.12886719 19.375 5.5625 C20.58800781 5.98724609 21.80101562 6.41199219 23.05078125 6.84960938 C26.03540754 7.89540363 29.01838236 8.94566493 32 10 C32 10.66 32 11.32 32 12 C33.65 12.33 35.3 12.66 37 13 C36.11464844 17.46595934 33.60388115 20.2643654 30.75 23.6875 C29.65454657 25.02725482 28.56086164 26.36845719 27.46875 27.7109375 C26.61410156 28.76039551 26.61410156 28.76039551 25.7421875 29.83105469 C22.84355493 33.43972226 20.04798889 37.12560304 17.25 40.8125 C13.30103103 46.00411931 9.31201907 51.1505694 5.21484375 56.2265625 C-4.8291016 68.80363693 -14.59396945 81.61148224 -24.36328125 94.40234375 C-24.9452124 95.16409912 -25.52714355 95.92585449 -26.12670898 96.71069336 C-27.2635442 98.19932677 -28.39980619 99.68839818 -29.53540039 101.17797852 C-30.05739014 101.86174561 -30.57937988 102.5455127 -31.1171875 103.25 C-31.6131543 103.8996875 -32.10912109 104.549375 -32.62011719 105.21875 C-33.80630693 106.74996734 -35.0287336 108.25299041 -36.2578125 109.75 C-38.24422609 112.16513442 -38.24422609 112.16513442 -40 116 C-56.17 116 -72.34 116 -89 116 C-87.98007435 111.92029741 -87.05512679 110.52025019 -84.4375 107.375 C-83.70789063 106.48683594 -82.97828125 105.59867187 -82.2265625 104.68359375 C-81.12441406 103.35521484 -81.12441406 103.35521484 -80 102 C-75.12033471 95.99821759 -70.37658124 89.90104759 -65.6875 83.75 C-57.72141972 73.30418373 -49.63233866 62.97906536 -41.3125 52.8125 C-36.98210178 47.51979107 -32.85422846 42.14312488 -28.88671875 36.5703125 C-26.1655889 32.86326604 -23.219841 29.35514275 -20.28515625 25.81640625 C-17.94391137 22.93087197 -15.71398462 19.98406623 -13.5 17 C-9.17840009 11.17689183 -4.63995889 5.57233833 0 0 Z " fill="#E9E8E6" transform="translate(213,246)"/>
<path d="M0 0 C0.84827362 0.00444122 1.69654724 0.00888245 2.57052612 0.01345825 C3.53137115 0.01360931 4.49221619 0.01376038 5.48217773 0.01391602 C6.52179657 0.02423859 7.56141541 0.03456116 8.63253784 0.04519653 C9.6951181 0.04802643 10.75769836 0.05085632 11.85247803 0.05377197 C15.25584033 0.06499264 18.6589422 0.09010066 22.06222534 0.11550903 C24.36560697 0.12553639 26.6689927 0.13466266 28.97238159 0.14285278 C34.6274188 0.1649381 40.28230347 0.19843415 45.93722534 0.24050903 C45.93722534 1.23050903 45.93722534 2.22050903 45.93722534 3.24050903 C45.27722534 3.24050903 44.61722534 3.24050903 43.93722534 3.24050903 C43.7013269 3.77675903 43.46542847 4.31300903 43.22238159 4.86550903 C41.57801586 7.90433689 39.50585064 10.53577471 37.37472534 13.24050903 C34.65719855 16.71772622 31.95105704 20.19632812 29.34738159 23.76004028 C28.73842041 24.5905188 28.73842041 24.5905188 28.11715698 25.43777466 C26.99070441 26.97980037 25.87006682 28.52606892 24.74972534 30.07254028 C24.15160034 30.78796997 23.55347534 31.50339966 22.93722534 32.24050903 C22.27722534 32.24050903 21.61722534 32.24050903 20.93722534 32.24050903 C20.71035034 33.12738403 20.48347534 34.01425903 20.24972534 34.92800903 C18.72750295 38.76980841 16.87359573 40.35397803 13.93722534 43.24050903 C12.0385807 45.43906876 10.23794956 47.71142495 8.43722534 49.99050903 C7.92168091 50.63810181 7.40613647 51.28569458 6.87496948 51.95291138 C2.412511 57.58255709 -1.92635472 63.30365818 -6.26467896 69.02908325 C-10.10310942 74.06439407 -14.11247175 78.91134652 -18.24612427 83.70535278 C-21.7673919 87.81619491 -24.9394645 92.10699742 -28.07058716 96.51785278 C-31.53534438 101.25302098 -35.30120092 105.73881083 -39.06277466 110.24050903 C-47.65367638 109.02245164 -55.22866163 105.97299354 -63.18777466 102.61550903 C-64.4426358 102.09383977 -65.69784234 101.57300051 -66.95339966 101.05300903 C-69.99334186 99.79026381 -73.02955592 98.51930026 -76.06277466 97.24050903 C-74.72976005 93.77694971 -73.40696751 91.12566947 -71.06277466 88.24050903 C-68.038179 84.4613365 -65.06463771 80.64868972 -62.12527466 76.80300903 C-58.53218376 72.1203263 -54.88294877 67.48860783 -51.18386841 62.88894653 C-43.34878347 53.10591231 -35.68716675 43.18802982 -28.06277466 33.24050903 C-22.24922494 25.66264821 -16.41609417 18.10019838 -10.56277466 10.55300903 C-9.64480103 9.36638672 -9.64480103 9.36638672 -8.70828247 8.15579224 C-8.13432739 7.41675659 -7.56037231 6.67772095 -6.96902466 5.91629028 C-6.45662231 5.25540405 -5.94421997 4.59451782 -5.41629028 3.91360474 C-2.48458385 0.28968984 -2.48458385 0.28968984 0 0 Z " fill="#EBEBE9" transform="translate(335.0627746582031,90.75949096679688)"/>
<path d="M0 0 C1.0209375 0.13535156 1.0209375 0.13535156 2.0625 0.2734375 C4 0.625 4 0.625 7 1.625 C7 2.285 7 2.945 7 3.625 C7.93005859 3.86283203 7.93005859 3.86283203 8.87890625 4.10546875 C15.83476072 5.93808834 22.61869995 8.11819434 29.421875 10.44140625 C32.92971648 11.60175119 36.44134259 12.63496326 40 13.625 C40 14.285 40 14.945 40 15.625 C40.98226562 15.86283203 40.98226562 15.86283203 41.984375 16.10546875 C47.30416623 17.46547187 52.4905625 19.04842124 57.625 21 C58.62789063 21.37898438 59.63078125 21.75796875 60.6640625 22.1484375 C63 23.625 63 23.625 63.8359375 26.2890625 C63.89007813 27.05992187 63.94421875 27.83078125 64 28.625 C63.38125 28.8725 62.7625 29.12 62.125 29.375 C59.58138675 30.87124309 59.1073478 31.93572677 58 34.625 C57.33333333 35.95833333 56.66666667 37.29166667 56 38.625 C55.34 38.625 54.68 38.625 54 38.625 C53.5978125 39.4603125 53.5978125 39.4603125 53.1875 40.3125 C51.89100504 42.83725334 50.57523677 45.26214484 49 47.625 C48.34 47.625 47.68 47.625 47 47.625 C45.79371992 49.95714148 44.8345262 52.12142139 44 54.625 C44.5775 54.8725 45.155 55.12 45.75 55.375 C48.3002997 56.79183317 50.01785701 58.50127537 52 60.625 C51.67 61.615 51.34 62.605 51 63.625 C47.66991025 64.73502992 46.34016824 64.31016272 43 63.625 C42.01 64.12 42.01 64.12 41 64.625 C41 63.965 41 63.305 41 62.625 C40.34 62.625 39.68 62.625 39 62.625 C39 63.285 39 63.945 39 64.625 C32.73549873 63.61605388 26.73176578 62.02179697 20.6875 60.125 C20.00623047 59.91141846 19.32496094 59.69783691 18.62304688 59.4777832 C15.02034284 58.32780503 11.48963216 57.08295077 8 55.625 C8 54.965 8 54.305 8 53.625 C6.80503906 53.39039063 5.61007813 53.15578125 4.37890625 52.9140625 C-2.25752396 51.43930023 -8.63371458 49.18735921 -15.0625 47 C-16.93325195 46.36964844 -16.93325195 46.36964844 -18.84179688 45.7265625 C-21.89594465 44.69681153 -24.94860185 43.66286449 -28 42.625 C-28 41.965 -28 41.305 -28 40.625 C-28.97453125 40.51929688 -29.9490625 40.41359375 -30.953125 40.3046875 C-35.4174225 39.66404058 -39.51569877 38.26488962 -43.75 36.75 C-44.50410156 36.49347656 -45.25820312 36.23695313 -46.03515625 35.97265625 C-46.76089844 35.71613281 -47.48664063 35.45960938 -48.234375 35.1953125 C-48.88631836 34.96602051 -49.53826172 34.73672852 -50.20996094 34.50048828 C-52.24233613 33.50647608 -53.4928969 32.29561506 -55 30.625 C-47.96086709 25.43485592 -40.60213488 21.02519561 -32.98730469 16.74902344 C-29.32633475 14.67837164 -25.69322603 12.56060876 -22.0625 10.4375 C-21.36503662 10.03362061 -20.66757324 9.62974121 -19.94897461 9.21362305 C-16.57715036 7.23881855 -13.34007381 5.19264534 -10.18359375 2.88671875 C-6.4794772 0.25520527 -4.40065021 -0.6167578 0 0 Z " fill="#F5F5F4" transform="translate(199,177.375)"/>
<path d="M0 0 C4.29777466 0.61115144 8.18062516 1.6278435 12.2734375 3.06640625 C13.42714844 3.46923828 14.58085937 3.87207031 15.76953125 4.28710938 C16.95933594 4.70798828 18.14914063 5.12886719 19.375 5.5625 C21.19451172 6.19961914 21.19451172 6.19961914 23.05078125 6.84960938 C26.03540754 7.89540363 29.01838236 8.94566493 32 10 C32 10.66 32 11.32 32 12 C34.475 12.495 34.475 12.495 37 13 C36.1097479 17.52984827 33.51110874 20.40050036 30.625 23.875 C29.53841933 25.20650664 28.45249831 26.53855184 27.3671875 27.87109375 C26.8112793 28.55026855 26.25537109 29.22944336 25.68261719 29.92919922 C22.99777371 33.23344216 20.37328344 36.58431987 17.75 39.9375 C17.27256348 40.5464209 16.79512695 41.1553418 16.30322266 41.78271484 C15.20147207 43.18794653 14.10062501 44.59388655 13 46 C11.5 44.6875 11.5 44.6875 10 43 C10 42.01 10 41.02 10 40 C9.34 40 8.68 40 8 40 C6.625 38.3046875 6.625 38.3046875 5 35.875 C4.08154297 34.52728516 4.08154297 34.52728516 3.14453125 33.15234375 C2.43683594 32.11207031 1.72914063 31.07179688 1 30 C-0.75736192 27.46953376 -2.5323921 24.9519993 -4.3125 22.4375 C-4.9612207 21.5081665 -4.9612207 21.5081665 -5.62304688 20.56005859 C-7.83736548 17.26599826 -7.83736548 17.26599826 -11 15 C-9.3718356 11.24269753 -6.98598083 8.383177 -4.375 5.25 C-3.55773437 4.26515625 -2.74046875 3.2803125 -1.8984375 2.265625 C-1.27195313 1.51796875 -0.64546875 0.7703125 0 0 Z " fill="#E3E0DD" transform="translate(213,246)"/>
<path d="M0 0 C0.33 0 0.66 0 1 0 C1.25029563 11.23549287 0.60451151 21.86870143 -1 33 C7.58 33 16.16 33 25 33 C25 33.33 25 33.66 25 34 C-14.6 34 -54.2 34 -95 34 C-94.09270117 30.37080467 -93.60807791 29.15475918 -91.4375 26.375 C-90.62925781 25.33279297 -90.62925781 25.33279297 -89.8046875 24.26953125 C-87.22195699 21.02155198 -84.63660865 17.77598763 -82.03515625 14.54296875 C-78.98173387 10.72765595 -75.98844371 6.86629905 -73 3 C-72.67 3.66 -72.34 4.32 -72 5 C-72.33 5.66 -72.66 6.32 -73 7 C-71.35 7 -69.7 7 -68 7 C-69.32 7.33 -70.64 7.66 -72 8 C-71.65555119 10.47266765 -71.65555119 10.47266765 -71 13 C-70.34 13.33 -69.68 13.66 -69 14 C-68.05521335 15.61963425 -67.115616 17.24259584 -66.20703125 18.8828125 C-64.85093922 21.26145935 -63.41963623 23.57272387 -61.9375 25.875 C-61.20853516 27.01582031 -61.20853516 27.01582031 -60.46484375 28.1796875 C-59.0390117 30.28746152 -59.0390117 30.28746152 -56 31 C-56.33 31.66 -56.66 32.32 -57 33 C-41.16 32.67 -25.32 32.34 -9 32 C-9.495 28.04 -9.495 28.04 -10 24 C-9.30322266 20.99633789 -9.30322266 20.99633789 -8.1640625 18.22265625 C-7.75929688 17.21525391 -7.35453125 16.20785156 -6.9375 15.16992188 C-6.504375 14.14447266 -6.07125 13.11902344 -5.625 12.0625 C-5.19960938 11.00998047 -4.77421875 9.95746094 -4.3359375 8.87304688 C-1.20894391 1.20894391 -1.20894391 1.20894391 0 0 Z " fill="#EAE9E7" transform="translate(296,328)"/>
<path d="M0 0 C3.3048381 2.2032254 3.56658911 2.82567601 4.6875 6.4375 C5.06455078 7.61119141 5.06455078 7.61119141 5.44921875 8.80859375 C6 11 6 11 6 14 C7.134375 14.33 8.26875 14.66 9.4375 15 C17.25485905 17.57646078 24.60307486 21.42467797 32 25 C31.20545286 28.84332084 29.87739815 30.42230103 27 33.125 C24.10714412 35.77060724 24.10714412 35.77060724 22 39 C13.09 39 4.18 39 -5 39 C-5 33.24431498 -4.9337123 28.3855055 -4.16015625 22.8125 C-3.98419922 21.53761719 -3.80824219 20.26273437 -3.62695312 18.94921875 C-3.44068359 17.64597656 -3.25441406 16.34273438 -3.0625 15 C-2.8777938 13.65240691 -2.69354559 12.30475097 -2.50976562 10.95703125 C-1.13276619 1.13276619 -1.13276619 1.13276619 0 0 Z " fill="#FBFBFA" transform="translate(300,322)"/>
<path d="M0 0 C0 24.42 0 48.84 0 74 C-0.33 74 -0.66 74 -1 74 C-1.495 67.565 -1.495 67.565 -2 61 C-6.62 61.33 -11.24 61.66 -16 62 C-15.58440013 53.1849081 -15.13031092 44.60397419 -13 36 C-8.96118589 37.59104798 -4.99469722 39.28798691 -1 41 C-1.495 25.655 -1.495 25.655 -2 10 C-2.66 10 -3.32 10 -4 10 C-4.19335938 10.79664063 -4.38671875 11.59328125 -4.5859375 12.4140625 C-7.17223199 22.93848858 -7.17223199 22.93848858 -9 28 C-9.66 28 -10.32 28 -11 28 C-11.33 29.65 -11.66 31.3 -12 33 C-12.66 33 -13.32 33 -14 33 C-14.67155349 30.73050898 -15.3373963 28.4596039 -16 26.1875 C-16.37125 24.92292969 -16.7425 23.65835937 -17.125 22.35546875 C-18 19 -18 19 -18 16 C-21.16115776 17.36983503 -21.9927092 17.9890638 -24 21 C-27.625 21.1875 -27.625 21.1875 -31 21 C-27.99901187 17.80669818 -24.82814076 15.35729198 -21.2109375 12.890625 C-20.66643951 12.51895203 -20.12194153 12.14727905 -19.5609436 11.76434326 C-18.41774787 10.98575556 -17.27305792 10.20935769 -16.12695312 9.43505859 C-14.36903267 8.24596357 -12.61791857 7.04730381 -10.8671875 5.84765625 C-9.75299834 5.09056541 -8.63842826 4.3340348 -7.5234375 3.578125 C-6.51200684 2.89137695 -5.50057617 2.20462891 -4.45849609 1.49707031 C-2 0 -2 0 0 0 Z " fill="#E5E4E3" transform="translate(366,242)"/>
<path d="M0 0 C1.64846769 0.44876616 3.29373455 0.90930488 4.9375 1.375 C5.85402344 1.63023437 6.77054687 1.88546875 7.71484375 2.1484375 C10 3 10 3 11 5 C10.01 5 9.02 5 8 5 C7.731875 5.845625 7.46375 6.69125 7.1875 7.5625 C6 11 6 11 4.625 14.0625 C3.15379601 17.40412916 2.10899918 20.81596155 1.0625 24.3125 C-0.64901911 30.02196914 -2.67241205 35.51531138 -5 41 C-3.68 41.33 -2.36 41.66 -1 42 C-2.175625 42.1546875 -2.175625 42.1546875 -3.375 42.3125 C-6.33045181 42.77595022 -6.33045181 42.77595022 -8 46 C-7.01 46.99 -6.02 47.98 -5 49 C-10.4790532 48.41834429 -15.18405683 47.04448406 -20.3125 45.0625 C-21.02728516 44.79759766 -21.74207031 44.53269531 -22.47851562 44.25976562 C-27.73791318 42.26208682 -27.73791318 42.26208682 -30 40 C-28.02 40.33 -26.04 40.66 -24 41 C-24 40.34 -24 39.68 -24 39 C-20 39 -20 39 -16.875 39.5625 C-14.0650771 40.27282321 -14.0650771 40.27282321 -12 39 C-13.49097658 35.2047869 -15.75700849 33.38957269 -19 31 C-18.38722388 28.03824877 -17.74627478 26.61941217 -16 24 C-15.34 24 -14.68 24 -14 24 C-13.731875 23.2575 -13.46375 22.515 -13.1875 21.75 C-12.04723249 19.10938051 -10.90619694 17.14447156 -9 15 C-8.34 15 -7.68 15 -7 15 C-6.773125 14.278125 -6.54625 13.55625 -6.3125 12.8125 C-5 10 -5 10 -2.375 7.5 C0.27332457 5.25235376 0.27332457 5.25235376 0.1484375 2.34375 C0.09945313 1.5703125 0.05046875 0.796875 0 0 Z " fill="#D6D4D1" transform="translate(262,201)"/>
<path d="M0 0 C0.83145727 0.00184359 1.66291454 0.00368717 2.51956749 0.00558662 C3.47311623 0.0028373 4.42666496 0.00008797 5.40910912 -0.00274467 C6.45855202 0.00444588 7.50799492 0.01163643 8.58923912 0.01904488 C10.24290741 0.0186068 10.24290741 0.0186068 11.92998314 0.01815987 C15.58780243 0.01955744 19.24542009 0.03513886 22.90320396 0.05078316 C25.43383231 0.05451176 27.96446209 0.05735945 30.49509239 0.0593586 C36.48390652 0.06622455 42.47263359 0.08200053 48.46141279 0.10205758 C55.27873153 0.12439496 62.09605372 0.13540456 68.91339993 0.14544845 C82.93868747 0.16636621 96.96391049 0.20155567 110.98914146 0.24609566 C110.65914146 1.23609566 110.32914146 2.22609566 109.98914146 3.24609566 C109.98914146 2.58609566 109.98914146 1.92609566 109.98914146 1.24609566 C97.44914146 1.24609566 84.90914146 1.24609566 71.98914146 1.24609566 C71.32914146 12.79609566 70.66914146 24.34609566 69.98914146 36.24609566 C70.64914146 36.57609566 71.30914146 36.90609566 71.98914146 37.24609566 C71.49414146 38.23609566 71.49414146 38.23609566 70.98914146 39.24609566 C67.02805015 37.97288774 65.93001106 35.60388115 64.05945396 32.04687691 C62.4645138 29.36341919 60.21473614 27.41462381 57.98914146 25.24609566 C56.05164146 22.68359566 56.05164146 22.68359566 54.98914146 20.24609566 C56.15939989 17.29632056 57.88804594 14.88552988 59.80164146 12.37109566 C60.52287193 11.41590034 60.52287193 11.41590034 61.25867271 10.44140816 C63.44860752 7.66320644 65.72097318 4.96085949 67.98914146 2.24609566 C67.13136604 2.24609566 66.27359062 2.24609566 65.38982201 2.24609566 C42.25626183 2.24609566 19.12270164 2.24609566 -4.01085854 2.24609566 C-2.01085854 0.24609566 -2.01085854 0.24609566 0 0 Z " fill="#C7C6C2" transform="translate(189.0108585357666,90.75390434265137)"/>
<path d="M0 0 C1.23819004 5.18205462 1.85405162 9.94436441 0 15 C-4.92605295 21.90709415 -11.58465838 27.50885432 -18 33 C-19.16458186 28.98695104 -18.75885508 25.52141756 -18.1875 21.4375 C-18.093479 20.73165771 -17.99945801 20.02581543 -17.90258789 19.29858398 C-15.62943626 2.62943626 -15.62943626 2.62943626 -14 1 C-9.26396007 0.27755323 -4.79634541 -0.04803207 0 0 Z " fill="#E6E6E5" transform="translate(365,302)"/>
<path d="M0 0 C0.33 0 0.66 0 1 0 C1.25029563 11.23549287 0.60451151 21.86870143 -1 33 C7.58 33 16.16 33 25 33 C25 33.33 25 33.66 25 34 C-14.6 34 -54.2 34 -95 34 C-94.04065919 30.16263678 -93.76390737 29.40339772 -91 27 C-90.67 27.99 -90.34 28.98 -90 30 C-90.66 30.66 -91.32 31.32 -92 32 C-64.61 32 -37.22 32 -9 32 C-9.495 28.04 -9.495 28.04 -10 24 C-9.30322266 20.99633789 -9.30322266 20.99633789 -8.1640625 18.22265625 C-7.75929688 17.21525391 -7.35453125 16.20785156 -6.9375 15.16992188 C-6.504375 14.14447266 -6.07125 13.11902344 -5.625 12.0625 C-5.19960938 11.00998047 -4.77421875 9.95746094 -4.3359375 8.87304688 C-1.20894391 1.20894391 -1.20894391 1.20894391 0 0 Z " fill="#DAD9D5" transform="translate(296,328)"/>
<path d="M0 0 C0 2.64 0 5.28 0 8 C-0.33 7.01 -0.66 6.02 -1 5 C-3.18749744 9.79166106 -4.83757138 14.56340398 -6.3046875 19.62109375 C-7.12865726 22.4401813 -8.04939415 25.22130599 -9 28 C-9.66 28 -10.32 28 -11 28 C-11.33 29.65 -11.66 31.3 -12 33 C-12.66 33 -13.32 33 -14 33 C-14.67155349 30.73050898 -15.3373963 28.4596039 -16 26.1875 C-16.37125 24.92292969 -16.7425 23.65835937 -17.125 22.35546875 C-18 19 -18 19 -18 16 C-21.16115776 17.36983503 -21.9927092 17.9890638 -24 21 C-27.625 21.1875 -27.625 21.1875 -31 21 C-27.99901187 17.80669818 -24.82814076 15.35729198 -21.2109375 12.890625 C-20.66643951 12.51895203 -20.12194153 12.14727905 -19.5609436 11.76434326 C-18.41774787 10.98575556 -17.27305792 10.20935769 -16.12695312 9.43505859 C-14.36903267 8.24596357 -12.61791857 7.04730381 -10.8671875 5.84765625 C-9.75299834 5.09056541 -8.63842826 4.3340348 -7.5234375 3.578125 C-6.51200684 2.89137695 -5.50057617 2.20462891 -4.45849609 1.49707031 C-2 0 -2 0 0 0 Z " fill="#DAD8D4" transform="translate(366,242)"/>
<path d="M0 0 C0.99 0 1.98 0 3 0 C3.67493341 2.22667765 4.33963044 4.45645977 5 6.6875 C5.37125 7.92886719 5.7425 9.17023438 6.125 10.44921875 C7 14 7 14 7 19 C-1.58 17.68 -10.16 16.36 -19 15 C-18.34 13.68 -17.68 12.36 -17 11 C-16.34 11 -15.68 11 -15 11 C-14.67 10.34 -14.34 9.68 -14 9 C-11.53143607 5.86682271 -10.47187083 5.06622749 -6.4375 4.5 C-2.92844503 4.37656114 -2.92844503 4.37656114 -1.25 1.9375 C-0.8375 1.298125 -0.425 0.65875 0 0 Z " fill="#F6F4F2" transform="translate(345,258)"/>
<path d="M0 0 C4.0841127 0.56883983 7.59660629 1.47858263 11.3984375 3.06640625 C12.37167969 3.46923828 13.34492188 3.87207031 14.34765625 4.28710938 C15.34667969 4.70798828 16.34570312 5.12886719 17.375 5.5625 C18.39722656 5.98724609 19.41945313 6.41199219 20.47265625 6.84960938 C22.98417905 7.89412119 25.49312619 8.94439049 28 10 C25.85279954 12.31169188 23.714762 13.90197989 20.98828125 15.48046875 C20.23095703 15.92197266 19.47363281 16.36347656 18.69335938 16.81835938 C17.51483398 17.49608398 17.51483398 17.49608398 16.3125 18.1875 C15.51521484 18.65091797 14.71792969 19.11433594 13.89648438 19.59179688 C11.93336513 20.73205177 9.96785129 21.86793773 8 23 C6.829298 20.65859599 6.79451478 18.98229878 6.625 16.375 C6.04203426 10.08079179 4.83117555 4.41283353 0 0 Z " fill="#CFCECC" transform="translate(337,229)"/>
<path d="M0 0 C0 10.56 0 21.12 0 32 C-7.88059701 30.68656716 -7.88059701 30.68656716 -11 27 C-11.120933 24.12509282 -10.61779776 21.8513743 -10 19 C-9.34 19 -8.68 19 -8 19 C-8.061875 18.319375 -8.12375 17.63875 -8.1875 16.9375 C-7.94604921 13.15477099 -6.56770347 10.43688838 -5 7 C-4.4740625 5.329375 -4.4740625 5.329375 -3.9375 3.625 C-2.64285714 0 -2.64285714 0 0 0 Z " fill="#FBFBFA" transform="translate(365,251)"/>
<path d="M0 0 C9.16191918 0.56291453 18.01728306 2.20796488 27 4 C27.66 6.31 28.32 8.62 29 11 C26.04160645 11.02689449 23.08345573 11.04678741 20.125 11.0625 C18.86236328 11.07506836 18.86236328 11.07506836 17.57421875 11.08789062 C16.76855469 11.09111328 15.96289062 11.09433594 15.1328125 11.09765625 C14.01737061 11.10551147 14.01737061 11.10551147 12.87939453 11.11352539 C11 11 11 11 9 10 C9 9.01 9 8.02 9 7 C7.68 6.67 6.36 6.34 5 6 C5 5.34 5 4.68 5 4 C4.34 4 3.68 4 3 4 C3 3.34 3 2.68 3 2 C2.01 1.67 1.02 1.34 0 1 C0 0.67 0 0.34 0 0 Z " fill="#E4E2DF" transform="translate(259,350)"/>
<path d="M0 0 C0.66 0.99 1.32 1.98 2 3 C1.34 3.66 0.68 4.32 0 5 C57.915 5.495 57.915 5.495 117 6 C117 6.33 117 6.66 117 7 C77.4 7 37.8 7 -3 7 C-2 3 -2 3 0 0 Z " fill="#AFAEAC" transform="translate(204,355)"/>
<path d="M0 0 C0.66 0.33 1.32 0.66 2 1 C0.83083249 7.50734021 -1.15696172 13.0296196 -4 19 C-7.3 19 -10.6 19 -14 19 C-13.01 17.68 -12.02 16.36 -11 15 C-10.7834375 13.948125 -10.7834375 13.948125 -10.5625 12.875 C-10.376875 12.25625 -10.19125 11.6375 -10 11 C-8.68352881 10.30062468 -7.34977849 9.63270867 -6 9 C-5.67 8.01 -5.34 7.02 -5 6 C-4.02149805 4.97895449 -3.02019573 3.9793879 -2 3 C-1.34 2.01 -0.68 1.02 0 0 Z " fill="#F4F2F2" transform="translate(216,342)"/>
<path d="M0 0 C0.79921875 0.00902344 1.5984375 0.01804687 2.421875 0.02734375 C3.02515625 0.03894531 3.6284375 0.05054688 4.25 0.0625 C2.93 2.3725 1.61 4.6825 0.25 7.0625 C-0.32363281 6.70567139 -0.89726562 6.34884277 -1.48828125 5.98120117 C-4.31501175 4.83299447 -5.17046643 5.20058534 -7.9375 6.36328125 C-8.71867187 6.68103516 -9.49984375 6.99878906 -10.3046875 7.32617188 C-11.11164063 7.67228516 -11.91859375 8.01839844 -12.75 8.375 C-14.35338049 9.03966012 -15.95752277 9.70248617 -17.5625 10.36328125 C-18.62404297 10.81441284 -18.62404297 10.81441284 -19.70703125 11.2746582 C-21.70396216 12.04474616 -23.66462572 12.590069 -25.75 13.0625 C-24.75 10.0625 -24.75 10.0625 -23.18359375 9.0703125 C-22.52488281 8.77898437 -21.86617187 8.48765625 -21.1875 8.1875 C-17.43641179 6.44327765 -14.04757808 4.40778454 -10.609375 2.11328125 C-7.12352385 0.14333596 -3.95120185 -0.05810591 0 0 Z " fill="#DBD8D6" transform="translate(217.75,295.9375)"/>
<path d="M0 0 C2.05078125 0.03255208 4.1015625 0.06510417 6.15234375 0.09765625 C3.84515564 4.38243417 1.82268302 7.82056762 -1.84765625 11.09765625 C-2.17765625 10.10765625 -2.50765625 9.11765625 -2.84765625 8.09765625 C-7.46765625 7.43765625 -12.08765625 6.77765625 -16.84765625 6.09765625 C-16.84765625 5.10765625 -16.84765625 4.11765625 -16.84765625 3.09765625 C-12.99314837 1.81282029 -9.28241486 1.67553877 -5.24609375 1.37890625 C-2.73826378 1.08482847 -2.36448362 0.12497271 0 0 Z " fill="#DADAD9" transform="translate(306.84765625,177.90234375)"/>
<path d="M0 0 C0 25.08 0 50.16 0 76 C-0.66 75.67 -1.32 75.34 -2 75 C-1.67 50.58 -1.34 26.16 -1 1 C-5.95 3.97 -5.95 3.97 -11 7 C-12.32 6.67 -13.64 6.34 -15 6 C-13.07010782 4.80017556 -11.13080772 3.61547182 -9.1875 2.4375 C-8.10855469 1.77621094 -7.02960938 1.11492187 -5.91796875 0.43359375 C-3 -1 -3 -1 0 0 Z " fill="#6B6B6A" transform="translate(367,241)"/>
<path d="M0 0 C-6.94388888 5.08250422 -13.93089358 10.09302808 -21 15 C-21.33 14.34 -21.66 13.68 -22 13 C-23.97536745 13.34786708 -23.97536745 13.34786708 -26 14 C-26.33 14.66 -26.66 15.32 -27 16 C-28.32 15.67 -29.64 15.34 -31 15 C-28.73647384 13.6418843 -26.47255796 12.28446599 -24.20703125 10.9296875 C-21.84347964 9.50752612 -19.48788975 8.07514209 -17.13671875 6.6328125 C-16.14200562 6.02651001 -16.14200562 6.02651001 -15.12719727 5.40795898 C-13.80876219 4.60429395 -12.49276765 3.7966092 -11.17944336 2.98461914 C-3.43635349 -1.71817674 -3.43635349 -1.71817674 0 0 Z " fill="#201F1D" transform="translate(356,248)"/>
<path d="M0 0 C0.66 0.33 1.32 0.66 2 1 C1.91796875 2.75 1.91796875 2.75 1 5 C-1.22236689 6.50708854 -3.32235996 7.7655946 -5.6875 9 C-12.53720552 12.68593813 -12.53720552 12.68593813 -19 17 C-19 17.66 -19 18.32 -19 19 C-19.66 19 -20.32 19 -21 19 C-20.69359809 15.83384696 -20.39377614 14.3742476 -18.05053711 12.1472168 C-17.2178833 11.58687744 -16.38522949 11.02653809 -15.52734375 10.44921875 C-14.17866211 9.52592773 -14.17866211 9.52592773 -12.80273438 8.58398438 C-11.85720703 7.95814453 -10.91167969 7.33230469 -9.9375 6.6875 C-8.98810547 6.04232422 -8.03871094 5.39714844 -7.06054688 4.73242188 C-4.71557159 3.14160949 -2.36224322 1.56500594 0 0 Z " fill="#292828" transform="translate(164,191)"/>
<path d="M0 0 C-2.47643336 2.76826894 -5.20609442 4.44356974 -8.4375 6.25 C-9.85869141 7.06210938 -9.85869141 7.06210938 -11.30859375 7.890625 C-14.17066212 9.07034549 -15.18762929 9.14356445 -18 8 C-16.35697047 6.31002677 -14.68528688 4.64783606 -13 3 C-11.8553125 1.824375 -11.8553125 1.824375 -10.6875 0.625 C-6.77103316 -1.74309623 -4.41411151 -0.89778539 0 0 Z " fill="#161515" transform="translate(182,185)"/>
<path d="M0 0 C0.77772405 2.33317216 1.42415568 4.61435923 2 7 C1.030625 7.28875 0.06125 7.5775 -0.9375 7.875 C-4.10664203 8.64214682 -4.10664203 8.64214682 -5 11 C-5.0716735 13.55157655 -5.09308442 16.07472971 -5.0625 18.625 C-5.05573242 19.68460938 -5.05573242 19.68460938 -5.04882812 20.765625 C-5.03703875 22.51045275 -5.01910324 24.255237 -5 26 C-5.66 26 -6.32 26 -7 26 C-7.16874707 24.08351538 -7.33491643 22.16680367 -7.5 20.25 C-7.5928125 19.18265625 -7.685625 18.1153125 -7.78125 17.015625 C-8.20393696 11.18858334 -7.74730299 9.19992231 -4 4.75 C-3.2575 3.85796875 -2.515 2.9659375 -1.75 2.046875 C-1.1725 1.37140625 -0.595 0.6959375 0 0 Z " fill="#C4C3C1" transform="translate(332,92)"/>
<path d="M0 0 C1.00073547 0.00022659 2.00147095 0.00045319 3.03253174 0.00068665 C4.64209747 0.02391243 4.64209747 0.02391243 6.28417969 0.04760742 C7.38832214 0.05185226 8.4924646 0.05609711 9.63006592 0.06047058 C13.15564385 0.07725949 16.6806496 0.11491309 20.20605469 0.15307617 C22.59667143 0.16812269 24.98729714 0.18181115 27.37792969 0.1940918 C33.23749982 0.22716374 39.09673637 0.27736571 44.95605469 0.34057617 C44.95605469 0.67057617 44.95605469 1.00057617 44.95605469 1.34057617 C44.05189568 1.34604462 44.05189568 1.34604462 43.12947083 1.35162354 C36.85114091 1.3934601 30.57354125 1.46281386 24.2956543 1.5480957 C21.9532807 1.5763073 19.61081188 1.59752085 17.26831055 1.61157227 C13.8994063 1.63299841 10.53164732 1.67964933 7.16308594 1.73120117 C5.5940728 1.73304413 5.5940728 1.73304413 3.99336243 1.73492432 C-1.95178363 1.84038575 -1.95178363 1.84038575 -7.24438477 4.37866211 C-7.83823975 5.02609375 -8.43209473 5.67352539 -9.04394531 6.34057617 C-9.04394531 5.35057617 -9.04394531 4.36057617 -9.04394531 3.34057617 C-6.14113624 0.46971031 -4.00993407 -0.03037829 0 0 Z " fill="#D3D3D3" transform="translate(245.0439453125,310.659423828125)"/>
<path d="M0 0 C0.66 0.99 1.32 1.98 2 3 C1.25556641 3.63615234 1.25556641 3.63615234 0.49609375 4.28515625 C-4.20429616 8.34336765 -8.66293502 12.55743885 -13 17 C-13.66 17.66 -14.32 18.32 -15 19 C-15.66 18.34 -16.32 17.68 -17 17 C-16.01 16.67 -15.02 16.34 -14 16 C-13.73445313 15.44828125 -13.46890625 14.8965625 -13.1953125 14.328125 C-11.4083462 10.84762854 -8.66409904 8.45497309 -5.875 5.75 C-5.31167969 5.19570313 -4.74835938 4.64140625 -4.16796875 4.0703125 C-2.78313972 2.70895515 -1.39216796 1.35385141 0 0 Z " fill="#313131" transform="translate(357,324)"/>
<path d="M0 0 C4.54805635 -0.17835515 7.8794254 0.00214565 12 2 C10.06745228 4.0245738 8.36841312 5.42105792 6 7 C3.3125 6.625 3.3125 6.625 1 6 C0.67 4.02 0.34 2.04 0 0 Z " fill="#D8D5D1" transform="translate(353,237)"/>
<path d="M0 0 C0.66 0.99 1.32 1.98 2 3 C1.34 3.66 0.68 4.32 0 5 C11.22 5.33 22.44 5.66 34 6 C34 6.33 34 6.66 34 7 C21.79 7 9.58 7 -3 7 C-2 3 -2 3 0 0 Z " fill="#B8B6B5" transform="translate(204,355)"/>
<path d="M0 0 C0.66 0.33 1.32 0.66 2 1 C2 1.66 2 2.32 2 3 C-2.78710617 6.89698666 -8.17659399 9.97963465 -14 12 C-14.66 11.67 -15.32 11.34 -16 11 C-10.72 7.37 -5.44 3.74 0 0 Z " fill="#CECDCB" transform="translate(333,263)"/>
<path d="M0 0 C-5.445 3.96 -5.445 3.96 -11 8 C-11.33 7.34 -11.66 6.68 -12 6 C-13.32 6.33 -14.64 6.66 -16 7 C-12.65182323 3.06096851 -5.20118162 -2.60059081 0 0 Z " fill="#2C2B2A" transform="translate(356,248)"/>
<path d="M0 0 C0 3.27427197 -0.15818587 5.84319701 -1 9 C-2.32 8.67 -3.64 8.34 -5 8 C-5.0825 8.61875 -5.165 9.2375 -5.25 9.875 C-6 12 -6 12 -8.0625 13.25 C-8.701875 13.4975 -9.34125 13.745 -10 14 C-8.43632643 10.47761953 -6.30504111 7.72876006 -3.875 4.75 C-3.15054688 3.85796875 -2.42609375 2.9659375 -1.6796875 2.046875 C-0.84824219 1.03367187 -0.84824219 1.03367187 0 0 Z " fill="#ADADAC" transform="translate(166,306)"/>
<path d="M0 0 C0 0.66 0 1.32 0 2 C-0.928125 2.4021875 -0.928125 2.4021875 -1.875 2.8125 C-4.2995233 3.95556848 -4.2995233 3.95556848 -6 7 C-9.625 7.1875 -9.625 7.1875 -13 7 C-5.77659574 -0.48138298 -5.77659574 -0.48138298 0 0 Z " fill="#DDDCD9" transform="translate(348,256)"/>
<path d="M0 0 C0.33 0.99 0.66 1.98 1 3 C0.01 3.33 -0.98 3.66 -2 4 C-2.14695313 4.60199219 -2.29390625 5.20398438 -2.4453125 5.82421875 C-3.19265498 8.75569595 -4.6134108 9.84500024 -6.875 11.8125 C-7.57367188 12.43769531 -8.27234375 13.06289062 -8.9921875 13.70703125 C-9.65476563 14.13371094 -10.31734375 14.56039062 -11 15 C-11.99 14.67 -12.98 14.34 -14 14 C-13.319375 13.505 -12.63875 13.01 -11.9375 12.5 C-8.79460213 9.8251933 -6.2191939 6.94051611 -3.55078125 3.8046875 C-2 2 -2 2 0 0 Z " fill="#BABAB9" transform="translate(177,101)"/>
<path d="M0 0 C0.33 0.99 0.66 1.98 1 3 C-2.63 6.63 -6.26 10.26 -10 14 C-10.99 13.67 -11.98 13.34 -13 13 C-12.48050781 12.56429688 -11.96101563 12.12859375 -11.42578125 11.6796875 C-7.16777334 8.04345894 -3.44527348 4.41425664 0 0 Z " fill="#323232" transform="translate(339,342)"/>
<path d="M0 0 C5.91492272 0.45224761 11.35199888 1.1582605 17 3 C16.67 3.99 16.34 4.98 16 6 C14.26982492 5.54548816 12.54090123 5.08621143 10.8125 4.625 C9.84957031 4.36976563 8.88664063 4.11453125 7.89453125 3.8515625 C5.17789793 3.05233704 2.60862825 2.0968638 0 1 C0 0.67 0 0.34 0 0 Z " fill="#D8D8D4" transform="translate(216,235)"/>
<path d="M0 0 C2.64 0 5.28 0 8 0 C7.375 1.9375 7.375 1.9375 6 4 C2.875 4.75 2.875 4.75 0 5 C-0.33 4.01 -0.66 3.02 -1 2 C-0.67 1.34 -0.34 0.68 0 0 Z " fill="#D7D7D3" transform="translate(333,92)"/>
<path d="M0 0 C-1.4042481 2.80849619 -3.10807701 2.88266612 -6 4 C-7.2684375 4.8353125 -7.2684375 4.8353125 -8.5625 5.6875 C-11 7 -11 7 -13.15234375 6.58203125 C-14.06693359 6.29392578 -14.06693359 6.29392578 -15 6 C-13.07010782 4.80017556 -11.13080772 3.61547182 -9.1875 2.4375 C-8.10855469 1.77621094 -7.02960938 1.11492187 -5.91796875 0.43359375 C-3 -1 -3 -1 0 0 Z " fill="#555350" transform="translate(367,241)"/>
<path d="M0 0 C0.66 0.99 1.32 1.98 2 3 C1.34 3 0.68 3 0 3 C0 3.99 0 4.98 0 6 C-1.75 7.82421875 -1.75 7.82421875 -4 9.6875 C-5.11375 10.62142578 -5.11375 10.62142578 -6.25 11.57421875 C-6.8275 12.04472656 -7.405 12.51523437 -8 13 C-8 9.00717059 -6.52191924 7.84668408 -4 4.8125 C-3.2575 3.91144531 -2.515 3.01039063 -1.75 2.08203125 C-1.1725 1.39496094 -0.595 0.70789063 0 0 Z " fill="#2F2F2E" transform="translate(234,281)"/>
<path d="M0 0 C0.33 0.66 0.66 1.32 1 2 C0.67 2.66 0.34 3.32 0 4 C1.65 4 3.3 4 5 4 C3.68 4.33 2.36 4.66 1 5 C1 5.66 1 6.32 1 7 C-0.65 7.66 -2.3 8.32 -4 9 C-4 4.31908701 -3.00354129 3.37898396 0 0 Z " fill="#D1D1D0" transform="translate(223,331)"/>
<path d="M0 0 C0.99 0.33 1.98 0.66 3 1 C3 4.96 3 8.92 3 13 C2.67 13 2.34 13 2 13 C2 9.7 2 6.4 2 3 C1.34 3 0.68 3 0 3 C-0.66 4.32 -1.32 5.64 -2 7 C-2.6875 5.1875 -2.6875 5.1875 -3 3 C-1.5625 1.25 -1.5625 1.25 0 0 Z " fill="#D9D8D6" transform="translate(322,105)"/>
<path d="M0 0 C2.375 0.625 2.375 0.625 5 2 C6.3125 5.125 6.3125 5.125 7 8 C4.69 7.34 2.38 6.68 0 6 C0.33 5.01 0.66 4.02 1 3 C0.67 2.01 0.34 1.02 0 0 Z " fill="#D0CECC" transform="translate(257,245)"/>
<path d="M0 0 C0.33 0.66 0.66 1.32 1 2 C-6.11389522 10.81548975 -6.11389522 10.81548975 -11 12 C-9.38405168 9.95880212 -7.7143618 7.95927063 -6 6 C-5.34 6 -4.68 6 -4 6 C-3.71125 5.38125 -3.4225 4.7625 -3.125 4.125 C-2 2 -2 2 0 0 Z " fill="#ABABAB" transform="translate(162,116)"/>
<path d="M0 0 C2.3797234 2.3797234 2.58749232 3.74424795 3.25 7 C3.44078125 7.886875 3.6315625 8.77375 3.828125 9.6875 C3.88484375 10.450625 3.9415625 11.21375 4 12 C3.34 12.66 2.68 13.32 2 14 C1.67 13.01 1.34 12.02 1 11 C0.34 10.67 -0.32 10.34 -1 10 C-0.34 10 0.32 10 1 10 C0.67 6.7 0.34 3.4 0 0 Z " fill="#DBDAD8" transform="translate(326,108)"/>
<path d="M0 0 C0.33 0 0.66 0 1 0 C1.10251672 5.12583611 1.03590199 9.94997778 0 15 C-0.33 15 -0.66 15 -1 15 C-1.22304441 13.25181409 -1.4278645 11.50129677 -1.625 9.75 C-1.74101562 8.77546875 -1.85703125 7.8009375 -1.9765625 6.796875 C-2.00112537 3.86570607 -1.5312717 2.45471036 0 0 Z " fill="#ECEAE6" transform="translate(298,321)"/>
<path d="M0 0 C1.65 0 3.3 0 5 0 C4.8125 1.875 4.8125 1.875 4 4 C1.4375 5.25 1.4375 5.25 -1 6 C-1.33 4.68 -1.66 3.36 -2 2 C-1.34 2 -0.68 2 0 2 C0 1.34 0 0.68 0 0 Z " fill="#EAE9E7" transform="translate(326,257)"/>
<path d="M0 0 C1 3 1 3 1 5 C2.98 5.99 4.96 6.98 7 8 C5 9 5 9 2.6171875 8.22265625 C1.71226562 7.83980469 0.80734375 7.45695313 -0.125 7.0625 C-1.03507812 6.68222656 -1.94515625 6.30195313 -2.8828125 5.91015625 C-3.93082031 5.45962891 -3.93082031 5.45962891 -5 5 C-3.35 3.35 -1.7 1.7 0 0 Z " fill="#B0B0AF" transform="translate(276,188)"/>
<path d="M0 0 C-1.485 1.485 -1.485 1.485 -3 3 C-3.33 2.34 -3.66 1.68 -4 1 C-5.97536745 1.34786708 -5.97536745 1.34786708 -8 2 C-8.33 2.66 -8.66 3.32 -9 4 C-10.32 3.67 -11.64 3.34 -13 3 C-8.30609874 -0.77801809 -5.8692391 -1.40861738 0 0 Z " fill="#2F2E2C" transform="translate(338,260)"/>
<path d="M0 0 C1.65 0.33 3.3 0.66 5 1 C4.8125 2.8125 4.8125 2.8125 4 5 C1.4375 6.75 1.4375 6.75 -1 8 C-0.67 5.36 -0.34 2.72 0 0 Z " fill="#DCDCDC" transform="translate(186,169)"/>
<path d="M0 0 C1.4783226 2.95664519 1.06032783 5.74229737 1 9 C-0.98 9 -2.96 9 -5 9 C-4.525625 8.4225 -4.05125 7.845 -3.5625 7.25 C-2.03978893 5.05729605 -1.53150499 3.5689408 -1 1 C-0.67 0.67 -0.34 0.34 0 0 Z " fill="#E7E6E4" transform="translate(207,352)"/>
<path d="M0 0 C1.32 0 2.64 0 4 0 C3.75 1.875 3.75 1.875 3 4 C0.9375 5.25 0.9375 5.25 -1 6 C-0.67 4.02 -0.34 2.04 0 0 Z " fill="#EAEBE9" transform="translate(246,259)"/>
<path d="M0 0 C0.99 0.33 1.98 0.66 3 1 C2 2 1 3 0 4 C-0.515625 4.53625 -1.03125 5.0725 -1.5625 5.625 C-3 7 -3 7 -5 8 C-4.66275164 4.88045262 -4.3790035 3.3790035 -2.125 1.125 C-1.42375 0.75375 -0.7225 0.3825 0 0 Z " fill="#515151" transform="translate(148,202)"/>
<path d="M0 0 C0.66 0.66 1.32 1.32 2 2 C0.02 4.31 -1.96 6.62 -4 9 C-4.66 8.67 -5.32 8.34 -6 8 C-4.02 5.36 -2.04 2.72 0 0 Z " fill="#C7C7C7" transform="translate(275,165)"/>
<path d="M0 0 C0.66666667 2 1.33333333 4 2 6 C-0.31 6.33 -2.62 6.66 -5 7 C-1.125 1.125 -1.125 1.125 0 0 Z " fill="#A5A4A2" transform="translate(332,92)"/>
<path d="M0 0 C0.66 0.33 1.32 0.66 2 1 C-0.64 3.64 -3.28 6.28 -6 9 C-6.33 8.01 -6.66 7.02 -7 6 C-4.69 4.02 -2.38 2.04 0 0 Z " fill="#D9D9D9" transform="translate(185,94)"/>
<path d="M0 0 C-0.33 1.32 -0.66 2.64 -1 4 C-3.64 4.66 -6.28 5.32 -9 6 C-3.28571429 0 -3.28571429 0 0 0 Z " fill="#BEBEBC" transform="translate(326,269)"/>
<path d="M0 0 C1 3 1 3 0 6 C-2.0625 6.6875 -2.0625 6.6875 -4 7 C-4 7.66 -4 8.32 -4 9 C-4.66 8.67 -5.32 8.34 -6 8 C-4.02 5.36 -2.04 2.72 0 0 Z " fill="#323232" transform="translate(307,186)"/>
<path d="M0 0 C2.97 0.495 2.97 0.495 6 1 C3.82575883 3.50037734 2.26954202 4.43628586 -1 5 C-1.33 4.34 -1.66 3.68 -2 3 C-1.34 2.01 -0.68 1.02 0 0 Z " fill="#121212" transform="translate(176,184)"/>
<path d="M0 0 C0.33 0.66 0.66 1.32 1 2 C-0.61000397 5.13950774 -2.38499232 7.63404067 -5 10 C-5.66 9.67 -6.32 9.34 -7 9 C-4.69 6.03 -2.38 3.06 0 0 Z " fill="#ABA9AA" transform="translate(215,341)"/>
<path d="M0 0 C0.33 0.99 0.66 1.98 1 3 C-2.4352048 5.29013653 -3.985331 5.17842973 -8 5 C-6.68 4.34 -5.36 3.68 -4 3 C-4 2.34 -4 1.68 -4 1 C-2 0 -2 0 0 0 Z " fill="#D8D8D6" transform="translate(316,265)"/>
<path d="M0 0 C0.66 0.33 1.32 0.66 2 1 C1.67 2.32 1.34 3.64 1 5 C-1.64 5.33 -4.28 5.66 -7 6 C-4.74259377 3.66475218 -2.7194239 1.81294927 0 0 Z " fill="#B8B6B4" transform="translate(352,250)"/>
<path d="M0 0 C0 3.27427197 -0.15818587 5.84319701 -1 9 C-1.99 8.34 -2.98 7.68 -4 7 C-2.92598892 4.08482708 -2.22189824 2.22189824 0 0 Z " fill="#C3C2C0" transform="translate(166,306)"/>
<path d="M0 0 C0.99 0.66 1.98 1.32 3 2 C1.35 3.65 -0.3 5.3 -2 7 C-2.99 6.67 -3.98 6.34 -5 6 C-3.35 4.02 -1.7 2.04 0 0 Z " fill="#272824" transform="translate(200,325)"/>
<path d="M0 0 C0.33 1.32 0.66 2.64 1 4 C-0.9375 6.25 -0.9375 6.25 -3 8 C-3.66 7.67 -4.32 7.34 -5 7 C-3.35 4.69 -1.7 2.38 0 0 Z " fill="#3C3C3C" transform="translate(276,122)"/>
<path d="M0 0 C1.98 0.66 3.96 1.32 6 2 C5.01 2.495 5.01 2.495 4 3 C3.67 3.99 3.34 4.98 3 6 C2.34 5.67 1.68 5.34 1 5 C0.375 2.4375 0.375 2.4375 0 0 Z " fill="#B2B1AF" transform="translate(341,230)"/>
<path d="M0 0 C0.66 0.33 1.32 0.66 2 1 C1.6875 2.9375 1.6875 2.9375 1 5 C0.01 5.33 -0.98 5.66 -2 6 C-2 5.34 -2 4.68 -2 4 C-2.66 3.67 -3.32 3.34 -4 3 C-2.68 2.01 -1.36 1.02 0 0 Z " fill="#383838" transform="translate(164,191)"/>
<path d="M0 0 C0.66 0.33 1.32 0.66 2 1 C1.67 2.65 1.34 4.3 1 6 C0.01 6.33 -0.98 6.66 -2 7 C-2 6.34 -2 5.68 -2 5 C-2.66 4.34 -3.32 3.68 -4 3 C-2.68 2.01 -1.36 1.02 0 0 Z " fill="#292829" transform="translate(174,184)"/>
<path d="M0 0 C0.66 0.66 1.32 1.32 2 2 C0.35 3.65 -1.3 5.3 -3 7 C-3.66 6.67 -4.32 6.34 -5 6 C-3.35 4.02 -1.7 2.04 0 0 Z " fill="#3A3A39" transform="translate(319,171)"/>
<path d="M0 0 C0.99 0.66 1.98 1.32 3 2 C0.80090595 4.19909405 -1.56070254 6.07423885 -4 8 C-2.87548273 5.0280615 -1.77706209 2.66559313 0 0 Z " fill="#393939" transform="translate(67,112)"/>
</svg>
