<svg width="168" height="24" viewBox="0 0 168 24" fill="none" xmlns="http://www.w3.org/2000/svg">
<path d="M49.1257 4.2579L49.3276 4.26484C50.5207 4.34754 51.3033 5.16378 51.3865 6.409L51.3939 6.63314V21.6144C51.3939 23.0806 50.5248 23.991 49.1244 23.991C48.0535 23.991 46.9122 23.4223 46.8106 21.8476L46.8033 21.6157V21.2547C45.4416 23.0251 43.2753 23.991 40.6189 23.991C35.1966 23.991 31.5551 20.0258 31.5551 14.1238C31.5551 8.22308 35.2611 4.2579 40.7788 4.2579C43.095 4.2579 45.0779 5.03446 46.4698 6.4648L46.6963 6.70922V6.63314C46.6963 5.25725 47.7176 4.2579 49.1257 4.2579ZM76.4306 4.2579C81.2721 4.25661 83.7788 7.15782 83.8855 12.8806L83.8891 13.2663V21.5603C83.8891 23.1038 83.0045 23.9897 81.4597 23.9897C80.0007 23.9897 79.1663 23.2072 79.0901 21.7793L79.0844 21.5603V13.2663C79.0844 9.79497 78.0193 8.31205 75.5216 8.31205C72.96 8.31205 71.6696 9.82668 71.5865 12.9386L71.5822 13.2663V21.5616C71.5822 23.1051 70.6976 23.991 69.1541 23.991C67.6951 23.991 66.8607 23.2085 66.7845 21.7806L66.7788 21.5616V13.1618C66.7788 9.71889 65.7459 8.31334 63.2147 8.31334C60.7259 8.31334 59.4223 9.69936 59.3354 12.4342L59.3307 12.7324V21.6144C59.3307 23.1025 58.4229 23.991 56.9013 23.991C55.446 23.991 54.611 23.2299 54.5311 21.8392L54.5248 21.6144V6.74016C54.5248 5.02514 55.7459 4.2579 56.9542 4.2579C58.3082 4.2579 59.2959 5.17859 59.3294 6.45906C60.4345 5.08575 62.303 4.2579 64.392 4.2579C67.1979 4.2579 69.274 5.43391 70.4294 7.6686C71.4816 5.49323 73.6402 4.2579 76.4306 4.2579ZM112.886 4.2579C114.058 4.2579 114.941 5.20954 114.941 6.47324C114.941 6.85042 114.866 7.22938 114.705 7.64969L114.598 7.90715L109.199 21.8594C108.633 23.2753 107.714 23.9897 106.465 23.9897C105.235 23.9897 104.362 23.3523 103.869 22.0926L100.202 11.8208L96.5209 21.8556C96.1611 22.8498 95.5357 23.991 93.8916 23.991C92.4728 23.991 91.8097 23.2318 91.3005 22.0721L91.2121 21.8633L85.755 7.94971C85.519 7.35912 85.4158 6.91682 85.4158 6.47324C85.4158 5.08704 86.4616 4.2579 87.4713 4.2579C88.4613 4.2579 89.2996 4.92657 89.75 6.05885L89.8349 6.29142L93.8903 17.7498L97.8968 6.34171C98.3455 4.99162 98.8471 4.2579 100.205 4.2579C101.402 4.2579 101.959 4.99579 102.382 6.1254L102.46 6.34171L106.467 17.7498L110.523 6.28755C110.946 5.0187 111.83 4.2579 112.886 4.2579ZM125.104 4.31077C132.425 4.31077 135.024 9.59767 135.024 14.1238C135.024 18.6757 132.425 23.991 125.105 23.991C121.99 23.991 119.408 22.9581 117.639 21.0032C116.055 19.256 115.184 16.8124 115.184 14.1238C115.184 11.4391 116.057 9.0058 117.639 7.27014C119.326 5.4226 121.754 4.40573 124.682 4.3171L125.104 4.31077ZM153.746 0C154.993 0.000676298 156.015 0.961311 156.115 2.18287L156.122 2.37782V12.2037L162.402 5.71502L162.71 5.38525C163.281 4.78784 163.897 4.2579 164.714 4.2579C165.947 4.2579 166.877 5.18762 166.877 6.41908C166.877 7.29752 166.296 7.94742 165.638 8.61017L165.473 8.77627L160.284 14.1741L165.95 19.844L166.259 20.1648C166.712 20.6571 167.09 21.2045 167.09 21.8839C167.09 23.0264 166.124 23.991 164.981 23.991C164.09 23.991 163.466 23.4119 162.88 22.8056L162.406 22.3172L156.121 15.7808V21.6131C156.12 22.9244 155.057 23.987 153.746 23.9884C152.5 23.9884 151.476 23.0271 151.377 21.8088L151.369 21.6144V2.37524C151.371 1.06381 152.434 0.00141987 153.746 0ZM2.37524 0.00257613C3.50017 0.00257613 4.63796 0.792063 4.74377 2.30531L4.75177 2.53772V4.8459H7.86847C9.12959 4.8459 9.97678 5.67118 9.97678 6.90135C9.97678 8.13885 9.26966 8.87523 8.02645 8.94932L7.81431 8.95551L4.75177 8.9568V17.8156C4.75177 19.5035 5.45454 19.7202 6.06705 19.7202C6.51137 19.7202 6.83538 19.6008 7.08129 19.492L7.19793 19.4391C7.38143 19.3428 7.58518 19.2915 7.79239 19.2895C8.77627 19.2895 9.4597 20.4307 9.4597 21.4545C9.4597 22.0064 9.24564 22.7157 8.64345 23.0509L8.313 23.2356C7.56011 23.6323 6.54984 23.9897 4.9439 23.9897C1.62601 23.9897 0.0913708 22.3826 0.00396817 18.7899L0 18.4578V2.53772C0 0.872985 1.19536 0.00128949 2.37524 0.00257613ZM146.629 4.25772C148.268 4.25772 149.327 5.12701 149.327 6.47324C149.327 7.73436 148.566 8.58156 147.433 8.58156C147.212 8.58156 147.042 8.55472 146.878 8.52008L146.716 8.48355C146.469 8.42553 146.214 8.3675 145.774 8.3675C143.095 8.3675 141.907 10.0949 141.839 14.125L141.836 14.4977V21.6144C141.836 23.1747 140.641 23.991 139.461 23.991C138.339 23.991 137.204 23.2543 137.093 21.8429L137.084 21.6144V6.63314C137.084 5.30238 138.129 4.25772 139.461 4.25772C140.698 4.25978 141.727 5.20938 141.828 6.44229C143.032 5.04643 144.786 4.24807 146.629 4.25772ZM21.1773 4.13926C24.9013 4.13926 28.0425 6.41521 29.3759 10.0774C29.7168 11.0153 29.522 12.2164 28.0075 12.8687L27.7821 12.9581L16.8588 16.9336C17.7447 18.7853 19.47 19.8826 21.5229 19.8826C22.3642 19.8726 23.1973 19.7155 23.9845 19.4184C24.9231 19.0883 25.798 18.6022 26.5729 17.9815L26.9658 17.648C27.345 17.3339 27.8198 17.1583 28.312 17.1502C29.2108 17.1502 30.0232 17.7988 30.2037 18.6602C30.3126 19.1737 30.1872 19.6984 29.85 20.1574L29.7034 20.3378L29.6905 20.3482C28.3701 21.4997 26.7053 22.4603 24.8781 23.1244C24.1954 23.3722 23.4955 23.5696 22.784 23.715C22.0025 23.8803 21.2062 23.9654 20.4075 23.969C16.3727 23.969 13.2044 21.6222 11.715 17.5293C10.7956 15.0019 10.7737 12.3817 11.6557 10.1534C12.6306 7.69568 14.6241 5.85686 17.4249 4.83817C18.7002 4.37395 19.9626 4.13926 21.1773 4.13926ZM125.104 8.15345C121.996 8.15345 119.988 10.4964 119.988 14.1238C119.988 17.8723 121.948 20.2012 125.104 20.2012C128.211 20.2012 130.219 17.8156 130.219 14.1238C130.219 10.4964 128.211 8.15345 125.104 8.15345ZM41.5809 8.52869C38.5222 8.52869 36.4668 10.7982 36.4668 14.1767C36.4668 17.4932 38.5003 19.7202 41.528 19.7202C45.0612 19.7202 46.6434 16.9091 46.6434 14.1238C46.6434 10.2579 44.1006 8.52869 41.5809 8.52869ZM20.5803 7.98194C20.1181 7.98194 19.6427 8.05292 19.1634 8.19354L18.8033 8.31205C16.022 9.32426 15.4067 11.6708 15.7321 13.5538L15.7705 13.7537L24.6241 10.5313C23.9394 9.25854 22.557 7.98194 20.5803 7.98194Z" fill="#AEB2BA"/>
</svg>
